<?xml version="1.0" encoding="utf-8"?>
<!-- Generator: Adobe Illustrator 19.1.0, SVG Export Plug-In . SVG Version: 6.00 Build 0)  -->
<svg version="1.1" id="Layer_1" xmlns="http://www.w3.org/2000/svg" xmlns:xlink="http://www.w3.org/1999/xlink" x="0px" y="0px"
	 viewBox="-49 141 512 512" style="enable-background:new -49 141 512 512;" xml:space="preserve">
<style type="text/css">
	.st0{fill:#FFFFFF;}
</style>
<path class="st0" d="M388.5,527.6L257.9,397l130.6-130.6c14.1-14.1,14.1-36.8,0-50.9c-14.1-14.1-36.8-14.1-50.9,0L207,346.1
	L76.4,215.5c-14.1-14.1-36.8-14.1-50.9,0s-14.1,36.8,0,50.9L156.1,397L25.5,527.6c-14.1,14.1-14.1,36.8,0,50.9s36.8,14.1,50.9,0
	L207,447.9l130.6,130.6c14.1,14.1,36.8,14.1,50.9,0C402.5,564.4,402.5,541.6,388.5,527.6z"/>
</svg>
