<?xml version="1.0" encoding="UTF-8" standalone="no"?>
<svg width="117px" height="117px" viewBox="0 0 117 117" version="1.1" xmlns="http://www.w3.org/2000/svg" xmlns:xlink="http://www.w3.org/1999/xlink" xmlns:sketch="http://www.bohemiancoding.com/sketch/ns">
    <!-- Generator: Sketch 3.5.2 (25235) - http://www.bohemiancoding.com/sketch -->
    <title>Group</title>
    <desc>Created with Sketch.</desc>
    <defs></defs>
    <g id="Welcome" stroke="none" stroke-width="1" fill="none" fill-rule="evenodd" sketch:type="MSPage">
        <g id="Desktop-HD-Undirsíða" sketch:type="MSArtboardGroup" transform="translate(-353.000000, -1967.000000)">
            <g id="Group" sketch:type="MSLayerGroup" transform="translate(354.000000, 1968.000000)">
                <circle id="Oval-5" stroke="#375874" stroke-width="2" sketch:type="MSShapeGroup" cx="57.4210526" cy="57.4512202" r="57"></circle>
                <path d="M87.135504,46.457415 L87.135504,85.3395808 L27.4218746,85.3395808 L27.4218746,45.635434 L27.4210526,42.0688586 L57.2786893,26.4512202 L87.135504,42.0688586 L87.135504,46.457415 L87.135504,46.457415 Z" id="Page-1" stroke="#F14A83" stroke-width="1.3" sketch:type="MSShapeGroup"></path>
                <path d="M48.1710526,66.5572202 C47.7570526,66.5572202 47.4210526,66.8932202 47.4210526,67.3072202 C47.4210526,67.7212202 47.7570526,68.0572202 48.1710526,68.0572202 C50.6720526,68.0572202 52.7070526,66.0222202 52.7070526,63.5212202 C52.7070526,62.0832202 52.0140526,60.7162202 50.8380526,59.8522202 L50.7200526,59.7712202 C50.6890526,59.7492202 50.6550526,59.7292202 50.6210526,59.7132202 C50.5580526,59.6822202 50.4950526,59.6482202 50.4320526,59.6112202 C49.5000526,59.0692202 48.9210526,58.0622202 48.9210526,56.9862202 C48.9210526,55.3122202 50.2830526,53.9512202 51.9570526,53.9512202 C52.3710526,53.9512202 52.7070526,53.6152202 52.7070526,53.2012202 C52.7070526,52.7862202 52.3710526,52.4512202 51.9570526,52.4512202 C49.4560526,52.4512202 47.4210526,54.4852202 47.4210526,56.9862202 C47.4210526,58.5952202 48.2850526,60.0972202 49.6740526,60.9062202 C49.7510526,60.9512202 49.8300526,60.9942202 49.9100526,61.0342202 L49.9650526,61.0732202 C50.7430526,61.6432202 51.2070526,62.5592202 51.2070526,63.5212202 C51.2070526,65.1952202 49.8450526,66.5572202 48.1710526,66.5572202" id="Fill-3" fill="#F14A83" sketch:type="MSShapeGroup"></path>
                <path d="M55.1710526,62.5572202 C54.7570526,62.5572202 54.4210526,62.8932202 54.4210526,63.3072202 C54.4210526,63.7212202 54.7570526,64.0572202 55.1710526,64.0572202 C57.6720526,64.0572202 59.7070526,62.0222202 59.7070526,59.5212202 C59.7070526,58.0832202 59.0140526,56.7162202 57.8350526,55.8502202 L57.7170526,55.7692202 C57.6880526,55.7492202 57.6580526,55.7312202 57.6260526,55.7162202 C57.5600526,55.6822202 57.4940526,55.6472202 57.4320526,55.6122202 C56.5000526,55.0682202 55.9210526,54.0622202 55.9210526,52.9862202 C55.9210526,51.3122202 57.2830526,49.9512202 58.9570526,49.9512202 C59.3710526,49.9512202 59.7070526,49.6152202 59.7070526,49.2012202 C59.7070526,48.7862202 59.3710526,48.4512202 58.9570526,48.4512202 C56.4560526,48.4512202 54.4210526,50.4852202 54.4210526,52.9862202 C54.4210526,54.5942202 55.2850526,56.0972202 56.6790526,56.9092202 C56.7540526,56.9532202 56.8320526,56.9952202 56.9100526,57.0352202 L56.9660526,57.0732202 C57.7430526,57.6432202 58.2070526,58.5592202 58.2070526,59.5212202 C58.2070526,61.1952202 56.8450526,62.5572202 55.1710526,62.5572202" id="Fill-5" fill="#F14A83" sketch:type="MSShapeGroup"></path>
                <path d="M63.1710526,68.5582202 C62.7570526,68.5582202 62.4210526,68.8942202 62.4210526,69.3082202 C62.4210526,69.7222202 62.7570526,70.0582202 63.1710526,70.0582202 C65.6720526,70.0582202 67.7070526,68.0232202 67.7070526,65.5222202 C67.7070526,64.0842202 67.0140526,62.7172202 65.8370526,61.8522202 L65.7190526,61.7712202 C65.6890526,61.7502202 65.6560526,61.7312202 65.6230526,61.7142202 C65.5580526,61.6832202 65.4950526,61.6492202 65.4320526,61.6122202 C64.5000526,61.0692202 63.9210526,60.0632202 63.9210526,58.9872202 C63.9210526,57.3132202 65.2830526,55.9512202 66.9570526,55.9512202 C67.3710526,55.9512202 67.7070526,55.6152202 67.7070526,55.2012202 C67.7070526,54.7872202 67.3710526,54.4512202 66.9570526,54.4512202 C64.4560526,54.4512202 62.4210526,56.4862202 62.4210526,58.9872202 C62.4210526,60.5952202 63.2850526,62.0982202 64.6750526,62.9082202 C64.7530526,62.9532202 64.8310526,62.9952202 64.9100526,63.0352202 L64.9660526,63.0742202 C65.7430526,63.6442202 66.2070526,64.5602202 66.2070526,65.5222202 C66.2070526,67.1962202 64.8450526,68.5582202 63.1710526,68.5582202" id="Fill-7" fill="#F14A83" sketch:type="MSShapeGroup"></path>
                <path d="M46.4210526,85.8532202 L46.4210526,73.4512202 L68.0340526,73.4512202 L68.0340526,85.8532202" id="Page-1" stroke="#F14A83" stroke-width="1.3" sketch:type="MSShapeGroup"></path>
            </g>
        </g>
    </g>
</svg>