<?xml version="1.0" encoding="utf-8"?>
<!-- Generator: Adobe Illustrator 19.1.0, SVG Export Plug-In . SVG Version: 6.00 Build 0)  -->
<svg version="1.1" id="Layer_1" xmlns="http://www.w3.org/2000/svg" xmlns:xlink="http://www.w3.org/1999/xlink" x="0px" y="0px"
	 viewBox="0 0 97.4 100.9" style="enable-background:new 0 0 97.4 100.9;" xml:space="preserve">
<style type="text/css">
	.st0{fill:#FFFFFF;}
</style>
<path class="st0" d="M67.4,63.9L64,63.6l-0.7,0.7l-3.6-3.7c6.6-6.4,10.7-15.3,10.8-25.2C70.6,16,54.9,0.1,35.4,0
	C16-0.1,0.1,15.6,0,35c-0.1,19.5,15.6,35.3,35,35.4c8.5,0.1,16.3-2.9,22.5-7.9l3.7,3.8l-0.6,0.6l0.2,3.5l30,30.4l6.6-6.6L67.4,63.9z
	 M35.1,62.4C20,62.3,7.9,50.1,8,35.1C8.1,20,20.4,7.9,35.4,8c15,0.1,27.1,12.3,27,27.4C62.3,50.4,50.1,62.5,35.1,62.4z"/>
</svg>
