<?xml version="1.0" encoding="UTF-8" standalone="no"?>
<svg width="116px" height="116px" viewBox="0 0 116 116" version="1.1" xmlns="http://www.w3.org/2000/svg" xmlns:xlink="http://www.w3.org/1999/xlink" xmlns:sketch="http://www.bohemiancoding.com/sketch/ns">
    <!-- Generator: Sketch 3.5.2 (25235) - http://www.bohemiancoding.com/sketch -->
    <title>Group 26</title>
    <desc>Created with Sketch.</desc>
    <defs>
        <path id="path-1" d="M0,0.751058824 L69.2905405,0.751058824 L69.2905405,80 L0,80 L0,0.751058824 Z"></path>
    </defs>
    <g id="Page-1" stroke="none" stroke-width="1" fill="none" fill-rule="evenodd" sketch:type="MSPage">
        <g id="ICON" sketch:type="MSArtboardGroup" transform="translate(-281.000000, -122.000000)">
            <g id="Group-3" sketch:type="MSLayerGroup" transform="translate(243.000000, 123.000000)">
                <g id="Group-26" transform="translate(39.000000, 0.000000)">
                    <g id="Group-2">
                        <circle id="Oval-5-Copy-3" stroke="#375874" stroke-width="2" sketch:type="MSShapeGroup" cx="57" cy="57" r="57"></circle>
                        <g id="Page-1-Copy" transform="translate(22.000000, 6.000000)">
                            <mask id="mask-2" sketch:name="Clip 2" fill="white">
                                <use xlink:href="#path-1"></use>
                            </mask>
                            <g id="Clip-2"></g>
                            <path d="M60.7795946,59 C58.7902703,59 57.1717568,60.6103529 57.1717568,62.5896471 C57.1717568,63.7905882 56.1898649,64.7675294 54.9828378,64.7675294 C53.7758108,64.7675294 52.7939189,63.7905882 52.7939189,62.5896471 C52.7939189,60.6103529 51.1754054,59 49.1860811,59 C47.1967568,59 45.5782432,60.6103529 45.5782432,62.5896471 C45.5782432,63.7905882 44.5963514,64.7675294 43.3893243,64.7675294 C42.1822973,64.7675294 41.2004054,63.7905882 41.2004054,62.5896471 C41.2004054,60.6103529 39.5818919,59 37.5925676,59 C35.6032432,59 33.9847297,60.6103529 33.9847297,62.5896471 C33.9847297,63.7905882 33.0028378,64.7675294 31.7958108,64.7675294 C30.5887838,64.7675294 29.6068919,63.7905882 29.6068919,62.5896471 C29.6068919,60.6103529 27.9883784,59 25.9990541,59 C24.0087838,59 22.3902703,60.6103529 22.3902703,62.5896471 C22.3902703,63.7905882 21.4083784,64.7675294 20.2022973,64.7675294 C18.9952703,64.7675294 18.0133784,63.7905882 18.0133784,62.5896471 C18.0133784,60.6103529 16.3948649,59 14.4055405,59 C12.4162162,59 10.7977027,60.6103529 10.7977027,62.5896471 C10.7977027,63.7905882 9.81581081,64.7675294 8.60878378,64.7675294 C7.40081081,64.7675294 6.41891892,63.7905882 6.41891892,62.5896471 C6.41891892,62.2 6.10108108,61.8837647 5.70945946,61.8837647 C5.31783784,61.8837647 5,62.2 5,62.5896471 C5,64.5689412 6.61851351,66.1792941 8.60878378,66.1792941 C10.5981081,66.1792941 12.2166216,64.5689412 12.2166216,62.5896471 C12.2166216,61.3887059 13.1985135,60.4117647 14.4055405,60.4117647 C15.6116216,60.4117647 16.5944595,61.3887059 16.5944595,62.5896471 C16.5944595,64.5689412 18.212027,66.1792941 20.2022973,66.1792941 C22.1916216,66.1792941 23.8091892,64.5689412 23.8091892,62.5896471 C23.8091892,61.3887059 24.792027,60.4117647 25.9990541,60.4117647 C27.2060811,60.4117647 28.187973,61.3887059 28.187973,62.5896471 C28.187973,64.5689412 29.8064865,66.1792941 31.7958108,66.1792941 C33.7851351,66.1792941 35.4036486,64.5689412 35.4036486,62.5896471 C35.4036486,61.3887059 36.3855405,60.4117647 37.5925676,60.4117647 C38.7995946,60.4117647 39.7814865,61.3887059 39.7814865,62.5896471 C39.7814865,64.5689412 41.4,66.1792941 43.3893243,66.1792941 C45.3786486,66.1792941 46.9971622,64.5689412 46.9971622,62.5896471 C46.9971622,61.3887059 47.9790541,60.4117647 49.1860811,60.4117647 C50.3931081,60.4117647 51.375,61.3887059 51.375,62.5896471 C51.375,64.5689412 52.9935135,66.1792941 54.9828378,66.1792941 C56.9721622,66.1792941 58.5906757,64.5689412 58.5906757,62.5896471 C58.5906757,61.3887059 59.5725676,60.4117647 60.7795946,60.4117647 C61.9866216,60.4117647 62.9685135,61.3887059 62.9685135,62.5896471 C62.9685135,62.9792941 63.2863514,63.2955294 63.677973,63.2955294 C64.0705405,63.2955294 64.3874324,62.9792941 64.3874324,62.5896471 C64.3874324,60.6103529 62.7698649,59 60.7795946,59" id="Fill-3" fill="#F14A83" sketch:type="MSShapeGroup" mask="url(#mask-2)"></path>
                        </g>
                    </g>
                    <path d="M86.7144514,43.0061948 L86.7144514,81.8883605 L27.000822,81.8883605 L27.000822,42.1842138 L27,38.6176384 L56.8576367,23 L86.7144514,38.6176384 L86.7144514,43.0061948 L86.7144514,43.0061948 Z" id="Page-1-Copy-3" stroke="#F14A83" stroke-width="1.3" sketch:type="MSShapeGroup"></path>
                </g>
            </g>
        </g>
    </g>
</svg>