<?xml version="1.0" encoding="UTF-8" standalone="no"?>
<svg width="41px" height="41px" viewBox="0 0 41 41" version="1.1" xmlns="http://www.w3.org/2000/svg" xmlns:xlink="http://www.w3.org/1999/xlink" xmlns:sketch="http://www.bohemiancoding.com/sketch/ns">
    <!-- Generator: Sketch 3.5.2 (25235) - http://www.bohemiancoding.com/sketch -->
    <title>16</title>
    <desc>Created with Sketch.</desc>
    <defs></defs>
    <g id="Welcome" stroke="none" stroke-width="1" fill="none" fill-rule="evenodd" sketch:type="MSPage">
        <g id="Desktop-HD-Minni" sketch:type="MSArtboardGroup" transform="translate(-997.000000, -459.000000)" fill="#375874">
            <g id="Leit" sketch:type="MSLayerGroup" transform="translate(189.000000, 363.000000)">
                <g id="16" transform="translate(808.000000, 96.000000)" sketch:type="MSShapeGroup">
                    <rect id="Rectangle-62" x="0" y="0" width="8" height="8"></rect>
                    <rect id="Rectangle-62-Copy" x="0" y="11" width="8" height="8"></rect>
                    <rect id="Rectangle-62-Copy-2" x="0" y="22" width="8" height="8"></rect>
                    <rect id="Rectangle-62-Copy-3" x="0" y="33" width="8" height="8"></rect>
                    <rect id="Rectangle-63" x="11" y="0" width="8" height="8"></rect>
                    <rect id="Rectangle-63-Copy" x="11" y="11" width="8" height="8"></rect>
                    <rect id="Rectangle-63-Copy-2" x="11" y="22" width="8" height="8"></rect>
                    <rect id="Rectangle-63-Copy-3" x="11" y="33" width="8" height="8"></rect>
                    <rect id="Rectangle-64" x="22" y="0" width="8" height="8"></rect>
                    <rect id="Rectangle-64-Copy" x="22" y="11" width="8" height="8"></rect>
                    <rect id="Rectangle-64-Copy-2" x="22" y="22" width="8" height="8"></rect>
                    <rect id="Rectangle-64-Copy-3" x="22" y="33" width="8" height="8"></rect>
                    <rect id="Rectangle-65" x="33" y="0" width="8" height="8"></rect>
                    <rect id="Rectangle-65-Copy" x="33" y="11" width="8" height="8"></rect>
                    <rect id="Rectangle-65-Copy-2" x="33" y="22" width="8" height="8"></rect>
                    <rect id="Rectangle-65-Copy-3" x="33" y="33" width="8" height="8"></rect>
                </g>
            </g>
        </g>
    </g>
</svg>