<?xml version="1.0" encoding="UTF-8" standalone="no"?>
<svg width="117px" height="117px" viewBox="0 0 117 117" version="1.1" xmlns="http://www.w3.org/2000/svg" xmlns:xlink="http://www.w3.org/1999/xlink" xmlns:sketch="http://www.bohemiancoding.com/sketch/ns">
    <!-- Generator: Sketch 3.5.2 (25235) - http://www.bohemiancoding.com/sketch -->
    <title>Group 5</title>
    <desc>Created with Sketch.</desc>
    <defs></defs>
    <g id="Welcome" stroke="none" stroke-width="1" fill="none" fill-rule="evenodd" sketch:type="MSPage">
        <g id="Desktop-HD-Undirsíða" sketch:type="MSArtboardGroup" transform="translate(-645.000000, -1967.000000)">
            <g id="Group-5" sketch:type="MSLayerGroup" transform="translate(646.000000, 1968.000000)">
                <g id="Page-1" transform="translate(22.421053, 19.451220)"></g>
                <circle id="Oval-5-Copy" stroke="#375874" stroke-width="2" sketch:type="MSShapeGroup" cx="57.4210526" cy="57.4512202" r="57"></circle>
                <path d="M80.812404,83.5943574 L80.812404,60.1813288 L90.9160526,54.3139288 L90.9160526,77.7269574 L80.812404,83.5943574 Z M23.8399716,54.3139288 L33.806458,60.1011859 L33.806458,83.5142145 L23.8399716,77.7269574 L23.8399716,54.3139288 Z M80.0499716,58.9876716 L34.7060526,58.9876716 L31.8748364,57.3433288 L39.6107824,52.8506145 L75.1452418,52.8506145 L82.8811878,57.3433288 L80.0499716,58.9876716 Z M61.6532148,60.4019574 L79.3934851,60.4019574 L79.3934851,84.0375002 L61.6532148,84.0375002 L61.6532148,60.4019574 Z M43.4097013,80.2849288 L60.2333499,80.2849288 L60.2333499,84.0365574 L43.4097013,84.0365574 L43.4097013,80.2849288 Z M60.2342959,63.8999574 L43.4106472,63.8999574 L43.4106472,60.4019574 L60.2342959,60.4019574 L60.2342959,63.8999574 Z M43.4097013,72.8410716 L60.2333499,72.8410716 L60.2333499,78.8706431 L43.4097013,78.8706431 L43.4097013,72.8410716 Z M60.2342959,71.4267859 L43.4106472,71.4267859 L43.4106472,65.3133002 L60.2342959,65.3133002 L60.2342959,71.4267859 Z M35.225377,60.4019574 L41.9917283,60.4019574 L41.9917283,84.0375002 L35.225377,84.0375002 L35.225377,60.4019574 Z M34.7060526,47.1802716 L80.0499716,47.1802716 L90.2160526,53.0835002 L84.2906472,56.5249288 L75.6938905,51.5325002 C75.5851067,51.4693288 75.4621337,51.4363288 75.3363229,51.4363288 L39.4197013,51.4363288 C39.2938905,51.4363288 39.1709175,51.4693288 39.0621337,51.5325002 L30.4663229,56.5249288 L24.5399716,53.0835002 L34.7060526,47.1802716 Z M92.2498364,52.7648145 C92.2356472,52.7365288 92.2167283,52.7139002 92.1978094,52.6884431 C92.1505121,52.6196145 92.0937553,52.5621002 92.0247013,52.5140145 C92.0076743,52.5027002 92.0001067,52.4829002 91.9830797,52.4725288 L80.5986202,45.8621574 C80.4907824,45.7989859 80.3678094,45.7659859 80.2419986,45.7659859 L34.5140256,45.7659859 C34.3882148,45.7659859 34.2652418,45.7989859 34.157404,45.8621574 L22.7738905,52.4725288 C22.7559175,52.4829002 22.7483499,52.5027002 22.7313229,52.5140145 C22.6632148,52.5621002 22.6055121,52.6196145 22.5582148,52.6884431 C22.5402418,52.7139002 22.520377,52.7365288 22.5061878,52.7648145 C22.4560526,52.8619288 22.4210526,52.9665859 22.4210526,53.0835002 L22.4210526,78.1333288 C22.4210526,78.3850716 22.555377,78.6179574 22.7738905,78.7443002 L34.157404,85.3546716 C34.1678094,85.3612716 34.1819986,85.3593859 34.1933499,85.3650431 C34.2898364,85.4150145 34.3948364,85.4489574 34.5102418,85.4499002 C34.5111878,85.4499002 34.5130797,85.4508431 34.5140256,85.4508431 L80.2419986,85.4508431 C80.3678094,85.4508431 80.4907824,85.4178431 80.5986202,85.3546716 L91.9830797,78.7443002 C92.2015932,78.6179574 92.3349716,78.3850716 92.3349716,78.1333288 L92.3349716,53.0835002 C92.3349716,52.9665859 92.2999716,52.8619288 92.2498364,52.7648145 L92.2498364,52.7648145 Z" id="Fill-1" fill="#F14A83" sketch:type="MSShapeGroup"></path>
                <path d="M55.598404,33.6630945 C55.2067824,33.6630945 54.8889445,33.9798945 54.8889445,34.3702374 C54.8889445,34.7605802 55.2067824,35.0773802 55.598404,35.0773802 C57.9642148,35.0773802 59.8892148,33.1586659 59.8892148,30.8005802 C59.8892148,29.4447516 59.2336743,28.1558659 58.118404,27.3393516 L58.0067824,27.2629802 C57.9793499,27.2441231 57.9509716,27.2271516 57.9207013,27.2130088 C57.8582688,27.1809516 57.7958364,27.1479516 57.7371878,27.1149516 C56.8555661,26.6020374 56.3078634,25.6535231 56.3078634,24.6390088 C56.3078634,23.0606659 57.5962418,21.7774374 59.1797553,21.7774374 C59.571377,21.7774374 59.8892148,21.4606374 59.8892148,21.0702945 C59.8892148,20.6790088 59.571377,20.3631516 59.1797553,20.3631516 C56.8139445,20.3631516 54.8889445,22.2809231 54.8889445,24.6390088 C54.8889445,26.1551231 55.7062418,27.5722374 57.0248905,28.3378374 C57.0958364,28.3793231 57.1696202,28.4189231 57.243404,28.4566374 L57.296377,28.4924659 C58.031377,29.0298945 58.4702959,29.8935516 58.4702959,30.8005802 C58.4702959,32.3789231 57.1819175,33.6630945 55.598404,33.6630945" id="Fill-5" fill="#F14A83" sketch:type="MSShapeGroup"></path>
                <path d="M62.6034175,40.0287945 C62.2117959,40.0287945 61.893958,40.3455945 61.893958,40.7359374 C61.893958,41.1262802 62.2117959,41.4430802 62.6034175,41.4430802 C64.9692283,41.4430802 66.8942283,39.5243659 66.8942283,37.1662802 C66.8942283,35.8104516 66.2386878,34.5215659 65.1253094,33.7059945 L65.0136878,33.6296231 C64.9853094,33.6098231 64.9540932,33.5919088 64.922877,33.5758802 C64.8613905,33.5466516 64.8017959,33.5145945 64.7422013,33.4797088 C63.8605797,32.9677374 63.312877,32.0192231 63.312877,31.0047088 C63.312877,29.4263659 64.6012553,28.1421945 66.1847688,28.1421945 C66.5763905,28.1421945 66.8942283,27.8253945 66.8942283,27.4350516 C66.8942283,27.0447088 66.5763905,26.7279088 66.1847688,26.7279088 C63.818958,26.7279088 61.893958,28.6466231 61.893958,31.0047088 C61.893958,32.5208231 62.7112553,33.9379374 64.0261202,34.7016516 C64.099904,34.7440802 64.1736878,34.7836802 64.2484175,34.8213945 L64.3013905,34.8581659 C65.0363905,35.3955945 65.4753094,36.2592516 65.4753094,37.1662802 C65.4753094,38.7446231 64.186931,40.0287945 62.6034175,40.0287945" id="Fill-7" fill="#F14A83" sketch:type="MSShapeGroup"></path>
                <path d="M48.0660526,36.2124202 C47.6520526,36.2124202 47.3160526,36.5484202 47.3160526,36.9624202 C47.3160526,37.3764202 47.6520526,37.7124202 48.0660526,37.7124202 C50.5670526,37.7124202 52.6020526,35.6774202 52.6020526,33.1764202 C52.6020526,31.7384202 51.9090526,30.3714202 50.7330526,29.5074202 L50.6150526,29.4264202 C50.5840526,29.4044202 50.5500526,29.3844202 50.5160526,29.3684202 C50.4530526,29.3374202 50.3900526,29.3034202 50.3270526,29.2664202 C49.3950526,28.7244202 48.8160526,27.7174202 48.8160526,26.6414202 C48.8160526,24.9674202 50.1780526,23.6064202 51.8520526,23.6064202 C52.2660526,23.6064202 52.6020526,23.2704202 52.6020526,22.8564202 C52.6020526,22.4414202 52.2660526,22.1064202 51.8520526,22.1064202 C49.3510526,22.1064202 47.3160526,24.1404202 47.3160526,26.6414202 C47.3160526,28.2504202 48.1800526,29.7524202 49.5690526,30.5614202 C49.6460526,30.6064202 49.7250526,30.6494202 49.8050526,30.6894202 L49.8600526,30.7284202 C50.6380526,31.2984202 51.1020526,32.2144202 51.1020526,33.1764202 C51.1020526,34.8504202 49.7400526,36.2124202 48.0660526,36.2124202" id="Fill-3" fill="#F14A83" sketch:type="MSShapeGroup"></path>
            </g>
        </g>
    </g>
</svg>