<?xml version="1.0" encoding="UTF-8" standalone="no"?>
<svg width="116px" height="116px" viewBox="0 0 116 116" version="1.1" xmlns="http://www.w3.org/2000/svg" xmlns:xlink="http://www.w3.org/1999/xlink" xmlns:sketch="http://www.bohemiancoding.com/sketch/ns">
    <!-- Generator: Sketch 3.5.2 (25235) - http://www.bohemiancoding.com/sketch -->
    <title>Group 28</title>
    <desc>Created with Sketch.</desc>
    <defs></defs>
    <g id="Page-1" stroke="none" stroke-width="1" fill="none" fill-rule="evenodd" sketch:type="MSPage">
        <g id="ICON" sketch:type="MSArtboardGroup" transform="translate(-657.000000, -122.000000)">
            <g id="Group" sketch:type="MSLayerGroup" transform="translate(619.000000, 123.000000)">
                <g id="Page-1" transform="translate(39.000000, 0.000000)" sketch:type="MSShapeGroup">
                    <g id="Group-28">
                        <circle id="Oval-5-Copy-3" stroke="#375874" stroke-width="2" cx="57" cy="57" r="57"></circle>
                        <path d="M58.2663881,96.5192935 L52.5503284,96.5192935 L52.5503284,18.3457174 L58.2663881,18.3457174 L58.2663881,96.5192935 Z" id="Fill-1" fill="#FFFFFF"></path>
                        <path d="M58.2663881,96.5192935 L52.5503284,96.5192935 L52.5503284,18.3457174 L58.2663881,18.3457174 L58.2663881,96.5192935 Z" id="Stroke-2" stroke="#F14A83"></path>
                        <path d="M40.6334806,58.6315989 L75.5002269,50.2434033 C78.6962269,49.4741315 80.679391,46.2403598 79.9070328,43.0571315 L79.9070328,43.0571315 C79.1346746,39.8739033 75.8889433,37.8986641 72.6929433,38.666925 L37.826197,47.0561315 C34.630197,47.8243924 32.6470328,51.0581641 33.4183761,54.2413924 L33.4183761,54.2413924 C34.1907343,57.4256315 37.4374806,59.4008707 40.6334806,58.6315989" id="Fill-4" fill="#FFFFFF"></path>
                        <path d="M40.6334806,58.6315989 L75.5002269,50.2434033 C78.6962269,49.4741315 80.679391,46.2403598 79.9070328,43.0571315 L79.9070328,43.0571315 C79.1346746,39.8739033 75.8889433,37.8986641 72.6929433,38.666925 L37.826197,47.0561315 C34.630197,47.8243924 32.6470328,51.0581641 33.4183761,54.2413924 L33.4183761,54.2413924 C34.1907343,57.4256315 37.4374806,59.4008707 40.6334806,58.6315989 L40.6334806,58.6315989 Z" id="Stroke-5" stroke="#F14A83"></path>
                        <path d="M40.6334806,80.7541761 L75.5002269,72.3659804 C78.6962269,71.5967087 80.679391,68.362937 79.9070328,65.1797087 L79.9070328,65.1797087 C79.1346746,61.9964804 75.8889433,60.0212413 72.6929433,60.7895022 L37.826197,69.1787087 C34.630197,69.9469696 32.6470328,73.1807413 33.4183761,76.3639696 L33.4183761,76.3639696 C34.1907343,79.5482087 37.4374806,81.5234478 40.6334806,80.7541761" id="Fill-6" fill="#FFFFFF"></path>
                        <path d="M40.6334806,80.7541761 L75.5002269,72.3659804 C78.6962269,71.5967087 80.679391,68.362937 79.9070328,65.1797087 L79.9070328,65.1797087 C79.1346746,61.9964804 75.8889433,60.0212413 72.6929433,60.7895022 L37.826197,69.1787087 C34.630197,69.9469696 32.6470328,73.1807413 33.4183761,76.3639696 L33.4183761,76.3639696 C34.1907343,79.5482087 37.4374806,81.5234478 40.6334806,80.7541761 L40.6334806,80.7541761 Z" id="Stroke-7" stroke="#F14A83"></path>
                        <path d="M74.4350627,50.0927837 L34.7179881,40.5370337 C31.0774507,39.6616207 28.8182269,35.978012 29.6971522,32.3520228 L29.6971522,32.3520228 C30.5770925,28.7250228 34.2754806,26.4748272 37.9160179,27.3512511 L77.6330925,36.9070011 C81.2736299,37.7824141 83.5328537,41.4660228 82.6539284,45.092012 L82.6539284,45.092012 C81.7739881,48.719012 78.0756,50.9692076 74.4350627,50.0927837" id="Fill-8" fill="#FFFFFF"></path>
                        <path d="M74.4350627,50.0927837 L34.7179881,40.5370337 C31.0774507,39.6616207 28.8182269,35.978012 29.6971522,32.3520228 L29.6971522,32.3520228 C30.5770925,28.7250228 34.2754806,26.4748272 37.9160179,27.3512511 L77.6330925,36.9070011 C81.2736299,37.7824141 83.5328537,41.4660228 82.6539284,45.092012 L82.6539284,45.092012 C81.7739881,48.719012 78.0756,50.9692076 74.4350627,50.0927837 L74.4350627,50.0927837 Z" id="Stroke-9" stroke="#F14A83"></path>
                        <path d="M74.4350627,70.9691609 L34.7179881,61.4134109 C31.0774507,60.5379978 28.8182269,56.8543891 29.6971522,53.2284 L29.6971522,53.2284 C30.5770925,49.6014 34.2754806,47.3512043 37.9160179,48.2276283 L77.6330925,57.7833783 C81.2736299,58.6587913 83.5328537,62.3424 82.6539284,65.9683891 L82.6539284,65.9683891 C81.7739881,69.5943783 78.0756,71.8455848 74.4350627,70.9691609" id="Fill-10" fill="#FFFFFF"></path>
                        <path d="M74.4350627,70.9691609 L34.7179881,61.4134109 C31.0774507,60.5379978 28.8182269,56.8543891 29.6971522,53.2284 L29.6971522,53.2284 C30.5770925,49.6014 34.2754806,47.3512043 37.9160179,48.2276283 L77.6330925,57.7833783 C81.2736299,58.6587913 83.5328537,62.3424 82.6539284,65.9683891 L82.6539284,65.9683891 C81.7739881,69.5943783 78.0756,71.8455848 74.4350627,70.9691609 L74.4350627,70.9691609 Z" id="Stroke-11" stroke="#F14A83"></path>
                        <path d="M74.4350627,92.3199391 L34.7179881,82.7641891 C31.0774507,81.8887761 28.8182269,78.2051674 29.6971522,74.5791783 L29.6971522,74.5791783 C30.5770925,70.9521783 34.2754806,68.7019826 37.9160179,69.5784065 L77.6330925,79.1341565 C89.8182866,81.3671674 93.5369731,87.5415587 94.4696896,90.3517761 C96.5969731,96.7576565 96.0631224,103.697276 95.8997194,105.77158 C95.5952418,109.620972 91.3061672,110.394287 88.1649731,110.489309 C84.7558388,110.592417 82.1809731,109.167091 81.8460478,106.483233 C81.2421672,101.639146 83.2750627,93.6724826 74.4350627,92.3199391" id="Fill-12" fill="#FFFFFF"></path>
                        <path d="M74.4350627,92.3199391 L34.7179881,82.7641891 C31.0774507,81.8887761 28.8182269,78.2051674 29.6971522,74.5791783 L29.6971522,74.5791783 C30.5770925,70.9521783 34.2754806,68.7019826 37.9160179,69.5784065 L77.6330925,79.1341565 C89.8182866,81.3671674 93.5369731,87.5415587 94.4696896,90.3517761 C96.5969731,96.7576565 96.0631224,103.697276 95.8997194,105.77158 C95.5952418,109.620972 91.3061672,110.394287 88.1649731,110.489309 C84.7558388,110.592417 82.1809731,109.167091 81.8460478,106.483233 C81.2421672,101.639146 83.2750627,93.6724826 74.4350627,92.3199391 L74.4350627,92.3199391 Z" id="Stroke-13" stroke="#F14A83"></path>
                        <path d="M31.8488955,33.4963272 L31.8488955,33.4963272 C32.5014925,30.8033707 35.2478806,29.1334141 37.9516418,29.7834033 L75.9514627,38.9257076 C78.654209,39.5756967 80.3318806,42.3111098 79.6792836,45.0040663 L79.6792836,45.0040663 L31.8488955,33.4963272 Z" id="Fill-14" fill="#FFFFFF"></path>
                        <path d="M31.8488955,33.4963272 L31.8488955,33.4963272 C32.5014925,30.8033707 35.2478806,29.1334141 37.9516418,29.7834033 L75.9514627,38.9257076 C78.654209,39.5756967 80.3318806,42.3111098 79.6792836,45.0040663 L79.6792836,45.0040663 L31.8488955,33.4963272 L31.8488955,33.4963272 Z" id="Stroke-15" stroke="#F14A83"></path>
                        <path d="M31.8488955,54.3726033 L31.8488955,54.3726033 C32.5014925,51.6796467 35.2478806,50.0096902 37.9516418,50.6596793 L75.9514627,59.8019837 C78.654209,60.4519728 80.3318806,63.1873859 79.6792836,65.8803424 L79.6792836,65.8803424 L31.8488955,54.3726033 Z" id="Fill-16" fill="#FFFFFF"></path>
                        <path d="M31.8488955,54.3726033 L31.8488955,54.3726033 C32.5014925,51.6796467 35.2478806,50.0096902 37.9516418,50.6596793 L75.9514627,59.8019837 C78.654209,60.4519728 80.3318806,63.1873859 79.6792836,65.8803424 L79.6792836,65.8803424 L31.8488955,54.3726033 L31.8488955,54.3726033 Z" id="Stroke-17" stroke="#F14A83"></path>
                        <path d="M77.382,87.462913 L30.7076119,75.7388478 C31.3886269,72.9296413 34.2507164,71.1848804 37.0681493,71.8631739 L78.9520896,81.8626957 C88.8273134,84.2190326 92.165403,88.9751739 92.8870149,91.152587 C94.531194,96.1159565 94.1160896,102.912033 93.9892239,104.518304 C93.7527463,107.50138 90.4329254,108.101837 88.0021791,108.17563 C85.3633731,108.2565 83.3720896,107.15263 83.1132836,105.073272 C82.6474328,101.320924 84.5483881,89.3936739 77.382,87.462913" id="Fill-18" fill="#FFFFFF"></path>
                        <path d="M77.382,87.462913 L30.7076119,75.7388478 C31.3886269,72.9296413 34.2507164,71.1848804 37.0681493,71.8631739 L78.9520896,81.8626957 C88.8273134,84.2190326 92.165403,88.9751739 92.8870149,91.152587 C94.531194,96.1159565 94.1160896,102.912033 93.9892239,104.518304 C93.7527463,107.50138 90.4329254,108.101837 88.0021791,108.17563 C85.3633731,108.2565 83.3720896,107.15263 83.1132836,105.073272 C82.6474328,101.320924 84.5483881,89.3936739 77.382,87.462913 L77.382,87.462913 Z" id="Stroke-19" stroke="#F14A83"></path>
                    </g>
                </g>
            </g>
        </g>
    </g>
</svg>