<?xml version="1.0" encoding="UTF-8" standalone="no"?>
<svg width="116px" height="116px" viewBox="0 0 116 116" version="1.1" xmlns="http://www.w3.org/2000/svg" xmlns:xlink="http://www.w3.org/1999/xlink" xmlns:sketch="http://www.bohemiancoding.com/sketch/ns">
    <!-- Generator: Sketch 3.5.2 (25235) - http://www.bohemiancoding.com/sketch -->
    <title>Page 1</title>
    <desc>Created with Sketch.</desc>
    <defs>
        <path id="path-1" d="M24,31.0551023 L90.8028841,31.0551023 L90.8028841,86 L24,86 L24,31.0551023 Z"></path>
    </defs>
    <g id="Page-1" stroke="none" stroke-width="1" fill="none" fill-rule="evenodd" sketch:type="MSPage">
        <g id="ICON" sketch:type="MSArtboardGroup" transform="translate(-1411.000000, -122.000000)">
            <g id="Group-6" sketch:type="MSLayerGroup" transform="translate(1373.000000, 123.000000)">
                <g id="Page-1" transform="translate(39.000000, 0.000000)">
                    <circle id="Oval-5-Copy-4" stroke="#375874" stroke-width="2" sketch:type="MSShapeGroup" cx="57" cy="57" r="57"></circle>
                    <mask id="mask-2" sketch:name="Clip 2" fill="white">
                        <use xlink:href="#path-1"></use>
                    </mask>
                    <g id="Clip-2"></g>
                    <path d="M45.9472609,73.7205848 L29.2331884,73.7205848 L29.2331884,68.9032456 L45.9472609,68.9032456 L45.9472609,73.7205848 Z M29.2331884,74.9645906 L45.9472609,74.9645906 L45.9472609,79.7809503 L29.2331884,79.7809503 L29.2331884,74.9645906 Z M45.9472609,60.6056287 L45.9472609,67.6592398 L29.2331884,67.6592398 L29.2331884,60.6056287 L45.9472609,60.6056287 Z M28,60.6056287 L28,85.3779971 C28,85.7218129 28.2767391,86 28.6165942,86 C28.9574203,86 29.2331884,85.7218129 29.2331884,85.3779971 L29.2331884,81.0249561 L45.9472609,81.0249561 L45.9472609,85.3779971 C45.9472609,85.7218129 46.224,86 46.5638551,86 C46.9046812,86 47.1804493,85.7218129 47.1804493,85.3779971 L47.1804493,60.6056287 L28,60.6056287 Z" id="Fill-1" fill="#F14A83" sketch:type="MSShapeGroup" mask="url(#mask-2)"></path>
                    <path d="M28,61.3588889 L47.1823913,61.3588889 L47.1823913,60.1834503 L28,60.1834503 L28,61.3588889 Z" id="Fill-4" fill="#F14A83" sketch:type="MSShapeGroup" mask="url(#mask-2)"></path>
                    <path id="Fill-5" fill="#FFFFFF" sketch:type="MSShapeGroup" mask="url(#mask-2)"></path>
                    <path d="M33.2400797,35.4374313 L33.2400797,59.9482646 L42.0879638,59.9482646 L42.0879638,35.519712 L33.7586014,35.519712 C33.5779928,35.519712 33.4032101,35.490326 33.2400797,35.4374313" id="Fill-6" fill="#FFFFFF" sketch:type="MSShapeGroup" mask="url(#mask-2)"></path>
                    <path d="M42.0877696,59.9486564 L33.2398855,59.9486564 L33.2398855,35.4378231 C33.4030159,35.4907178 33.5777986,35.5201038 33.7584072,35.5201038 L42.0877696,35.5201038 L42.0877696,59.9486564 Z M33.7584072,34.3436857 C33.471958,34.3436857 33.2398855,34.1095775 33.2398855,33.821595 L32.6572768,33.821595 L32.0746681,33.821595 L32.0746681,61.124095 L43.252987,61.124095 L43.252987,34.3436857 L33.7584072,34.3436857 Z" id="Fill-7" fill="#F14A83" sketch:type="MSShapeGroup" mask="url(#mask-2)"></path>
                    <path d="M80.9231058,32.2309327 L33.7580188,32.2309327 C33.4725406,32.2309327 33.2404681,32.4650409 33.2404681,32.7540029 L33.2511493,34.3437836 L80.9231058,34.3437836 C81.2085841,34.3437836 81.4416275,34.1096754 81.4416275,33.821693 L81.4416275,32.7540029 C81.4416275,32.4650409 81.2085841,32.2309327 80.9231058,32.2309327" id="Fill-8" fill="#FFFFFF" sketch:type="MSShapeGroup" mask="url(#mask-2)"></path>
                    <path d="M81.4418217,33.8213012 C81.4418217,34.1092836 81.2087783,34.3443713 80.9233,34.3443713 L33.2513435,34.3443713 L33.2396913,32.7536111 C33.2396913,32.4656287 33.4727348,32.2305409 33.758213,32.2305409 L80.9233,32.2305409 C81.2087783,32.2305409 81.4418217,32.4656287 81.4418217,32.7536111 L81.4418217,33.8213012 Z M80.9233,31.0551023 L33.758213,31.0551023 C32.8299232,31.0551023 32.0744739,31.8171784 32.0744739,32.7585088 L32.0938942,35.5198099 L80.9233,35.5198099 C81.8515899,35.5198099 82.6060681,34.7577339 82.6060681,33.8213012 L82.6060681,32.7536111 C82.6060681,31.8171784 81.8515899,31.0551023 80.9233,31.0551023 L80.9233,31.0551023 Z" id="Fill-9" fill="#F14A83" sketch:type="MSShapeGroup" mask="url(#mask-2)"></path>
                    <path d="M84.285,82.4104471 C84.285,83.6113882 83.3031081,84.5883294 82.0960811,84.5883294 C80.8890541,84.5883294 79.9071622,83.6113882 79.9071622,82.4104471 C79.9071622,80.4311529 78.2886486,78.8208 76.2993243,78.8208 C74.31,78.8208 72.6914865,80.4311529 72.6914865,82.4104471 C72.6914865,83.6113882 71.7095946,84.5883294 70.5025676,84.5883294 C69.2955405,84.5883294 68.3136486,83.6113882 68.3136486,82.4104471 C68.3136486,80.4311529 66.6951351,78.8208 64.7058108,78.8208 C62.7164865,78.8208 61.097973,80.4311529 61.097973,82.4104471 C61.097973,83.6113882 60.1160811,84.5883294 58.9090541,84.5883294 C57.702027,84.5883294 56.7201351,83.6113882 56.7201351,82.4104471 C56.7201351,80.4311529 55.1016216,78.8208 53.1122973,78.8208 C51.122027,78.8208 49.5035135,80.4311529 49.5035135,82.4104471 C49.5035135,83.6113882 48.5216216,84.5883294 47.3155405,84.5883294 C46.1085135,84.5883294 45.3252703,86.0000941 47.3155405,86.0000941 C49.3048649,86.0000941 50.9224324,84.3897412 50.9224324,82.4104471 C50.9224324,81.2095059 51.9052703,80.2325647 53.1122973,80.2325647 C54.3193243,80.2325647 55.3012162,81.2095059 55.3012162,82.4104471 C55.3012162,84.3897412 56.9197297,86.0000941 58.9090541,86.0000941 C60.8983784,86.0000941 62.5168919,84.3897412 62.5168919,82.4104471 C62.5168919,81.2095059 63.4987838,80.2325647 64.7058108,80.2325647 C65.9128378,80.2325647 66.8947297,81.2095059 66.8947297,82.4104471 C66.8947297,84.3897412 68.5132432,86.0000941 70.5025676,86.0000941 C72.4918919,86.0000941 74.1104054,84.3897412 74.1104054,82.4104471 C74.1104054,81.2095059 75.0922973,80.2325647 76.2993243,80.2325647 C77.5063514,80.2325647 78.4882432,81.2095059 78.4882432,82.4104471 C78.4882432,84.3897412 80.1067568,86.0000941 82.0960811,86.0000941 C84.0854054,86.0000941 85.7039189,84.3897412 85.7039189,82.4104471 C85.7039189,81.2095059 86.6858108,80.2325647 87.8928378,80.2325647 C89.0998649,80.2325647 90.0817568,81.2095059 90.0817568,82.4104471 C90.0817568,82.8000941 90.3995946,83.1163294 90.7912162,83.1163294 C91.1837838,83.1163294 91.5006757,82.8000941 91.5006757,82.4104471 C91.5006757,80.4311529 89.8831081,78.8208 87.8928378,78.8208 C85.9035135,78.8208 84.285,80.4311529 84.285,82.4104471 Z" id="Fill-3" fill="#F14A83" sketch:type="MSShapeGroup" mask="url(#mask-2)"></path>
                </g>
            </g>
        </g>
    </g>
</svg>